<svg width="20" height="18" viewBox="0 0 20 18" fill="none" xmlns="http://www.w3.org/2000/svg">
    <path d="M18.3808 3.47556L12.236 0.604351C10.8833 -0.188083 9.19978 -0.202144 7.83357 0.567572L1.61958 3.47556C1.59626 3.48702 1.57209 3.49928 1.54959 3.51234C0.074936 4.33933 -0.437004 6.18223 0.406177 7.62856C0.69199 8.11887 1.11241 8.52061 1.61958 8.7881L3.33372 9.58908V13.5939C3.33473 15.3847 4.52279 16.9668 6.26614 17.499C7.47936 17.8432 8.73733 18.0118 10.0002 17.9992C11.2629 18.0131 12.5209 17.846 13.7343 17.5031C15.4777 16.9709 16.6657 15.3888 16.6667 13.598V9.58743L18.3334 8.80607V15.5472C18.3334 15.9986 18.7064 16.3645 19.1667 16.3645C19.6269 16.3645 20 15.9986 20 15.5472V5.7395C20.0055 4.77976 19.2329 3.89316 18.3808 3.47556ZM15.0001 13.598C15.0005 14.6691 14.2919 15.6166 13.2501 15.9379C12.1936 16.234 11.0989 16.3777 10.0002 16.3646C8.90151 16.3777 7.80673 16.234 6.75027 15.9379C5.70846 15.6166 4.99989 14.6691 5.00032 13.598V10.368L7.76443 11.6593C8.44644 12.0566 9.22537 12.2653 10.0185 12.2633C10.7735 12.2686 11.5158 12.0725 12.166 11.6961L15.0001 10.3679V13.598ZM17.6667 7.31284L11.3818 10.2552C10.5055 10.7556 9.41934 10.7414 8.55691 10.2184L2.40788 7.34962C1.72247 6.98711 1.46646 6.14828 1.83606 5.47607C1.96106 5.24873 2.14848 5.06028 2.37706 4.93201L8.62272 2.00605C9.4993 1.5067 10.5849 1.52084 11.4477 2.04283L17.5925 4.91404C18.0444 5.16016 18.3271 5.62491 18.3333 6.13185C18.3341 6.61205 18.082 7.0586 17.6667 7.31284Z" fill="#212121"/>
</svg>