<svg width="20" height="21" viewBox="0 0 20 21" fill="none" xmlns="http://www.w3.org/2000/svg">
<path d="M11.875 13.1284V14.6909C11.875 15.1053 11.7104 15.5027 11.4174 15.7958C11.1243 16.0888 10.7269 16.2534 10.3125 16.2534H4.0625C3.6481 16.2534 3.25067 16.0888 2.95765 15.7958C2.66462 15.5027 2.5 15.1053 2.5 14.6909V5.31592C2.5 4.90152 2.66462 4.50409 2.95765 4.21106C3.25067 3.91804 3.6481 3.75342 4.0625 3.75342H10C10.8629 3.75342 11.875 4.45303 11.875 5.31592V6.87842" stroke="#171717" stroke-width="1.5" stroke-linecap="round" stroke-linejoin="round"/>
<path d="M14.375 13.1289L17.5 10.0039L14.375 6.87891" stroke="#171717" stroke-width="1.5" stroke-linecap="round" stroke-linejoin="round"/>
<path d="M6.875 10.0049H16.875" stroke="#171717" stroke-width="1.5" stroke-linecap="round" stroke-linejoin="round"/>
</svg>
