<svg width="14" height="14" viewBox="0 0 14 14" fill="none" xmlns="http://www.w3.org/2000/svg">
<path d="M11.832 4.46642L11.7655 4.96942L12.2076 5.21828C12.8396 5.57397 13.25 6.25095 13.25 7C13.25 7.74905 12.8396 8.42603 12.2076 8.78172L11.7655 9.03058L11.832 9.53358C11.844 9.62462 11.85 9.71356 11.85 9.8C11.85 11.0163 10.7449 11.994 9.53471 11.8321L9.03065 11.7647L8.78149 12.208C8.42662 12.8394 7.74993 13.25 7 13.25C6.25007 13.25 5.57338 12.8394 5.21851 12.208L4.96942 11.7648L4.4655 11.8321C3.25224 11.994 2.1503 11.017 2.15 9.8005C2.15014 9.71157 2.15612 9.62275 2.1679 9.5346L2.23517 9.03095L1.79237 8.78172C1.16044 8.42603 0.75 7.74905 0.75 7C0.75 6.25095 1.16044 5.57397 1.79237 5.21828L2.23452 4.96942L2.16803 4.46642C2.156 4.37538 2.15 4.28644 2.15 4.2C2.15 2.98162 3.25322 2.0036 4.46396 2.1677L4.96886 2.23614L5.21851 1.79197C5.57338 1.16057 6.25007 0.75 7 0.75C7.74993 0.75 8.42662 1.16057 8.78149 1.79197L9.03121 2.23627L9.53624 2.16768C10.7438 2.00366 11.85 2.98206 11.85 4.2C11.85 4.28644 11.844 4.37538 11.832 4.46642Z" fill="white" stroke="#38467E" stroke-width="1.5"/>
</svg>
