<svg width="15" height="15" viewBox="0 0 15 15" fill="none" xmlns="http://www.w3.org/2000/svg">
<path d="M10.7549 0C13.2974 0 14.9998 1.78498 14.9998 4.43996V10.5681C14.9998 13.2149 13.2974 14.9998 10.7549 14.9998H4.25246C1.70998 14.9998 0 13.2149 0 10.5681V4.43996C0 1.78498 1.70998 0 4.25246 0H10.7549ZM10.6349 5.24995C10.3799 4.99495 9.9599 4.99495 9.7049 5.24995L6.60743 8.34742L5.29495 7.03493C5.03995 6.77993 4.61995 6.77993 4.36496 7.03493C4.10996 7.28993 4.10996 7.70242 4.36496 7.96492L6.14994 9.7424C6.27744 9.8699 6.44244 9.9299 6.60743 9.9299C6.77993 9.9299 6.94493 9.8699 7.07243 9.7424L10.6349 6.17994C10.8899 5.92494 10.8899 5.51244 10.6349 5.24995Z" fill="#38467E"/>
</svg>
