<svg width="19" height="18" viewBox="0 0 19 18" fill="none" xmlns="http://www.w3.org/2000/svg">
<path d="M15.2972 8.14861C15.2972 9.46358 14.9073 10.749 14.1767 11.8424C13.4462 12.9357 12.4078 13.7879 11.1929 14.2911C9.97805 14.7943 8.64123 14.926 7.35153 14.6695C6.06183 14.4129 4.87716 13.7797 3.94733 12.8499C3.01751 11.9201 2.38429 10.7354 2.12775 9.44569C1.87122 8.15598 2.00288 6.81917 2.5061 5.60429C3.00932 4.38942 3.86148 3.35105 4.95484 2.62049C6.0482 1.88993 7.33364 1.5 8.64861 1.5C10.4119 1.5 12.103 2.20048 13.3499 3.44733C14.5967 4.69419 15.2972 6.38529 15.2972 8.14861Z" stroke="#109CA6" stroke-width="2.5" stroke-linecap="round" stroke-linejoin="round"/>
<path d="M17.0048 16.5L13.293 12.7881" stroke="#109CA6" stroke-width="2.5" stroke-linecap="round" stroke-linejoin="round"/>
</svg>
