<svg width="22" height="23" viewBox="0 0 22 23" fill="none" xmlns="http://www.w3.org/2000/svg">
<path d="M17.8056 8.24604L17.7613 8.58138L18.056 8.74729C19.0322 9.29671 19.6667 10.342 19.6667 11.5007C19.6667 12.6593 19.0322 13.7046 18.056 14.254L17.7613 14.4199L17.8056 14.7553C17.824 14.8943 17.8334 15.0318 17.8334 15.1673C17.8334 17.0488 16.1323 18.5573 14.2554 18.3063L13.9194 18.2614L13.7533 18.5569C13.2048 19.5327 12.1597 20.1673 11 20.1673C9.84038 20.1673 8.79526 19.5327 8.24683 18.5569L8.08077 18.2615L7.74482 18.3063C5.86364 18.5573 4.16691 17.0492 4.16671 15.1677C4.16691 15.03 4.17616 14.8924 4.19439 14.7559L4.23924 14.4202L3.94404 14.254C2.9679 13.7046 2.33337 12.6593 2.33337 11.5007C2.33337 10.342 2.9679 9.29671 3.94404 8.74729L4.2388 8.58138L4.19448 8.24605C4.17611 8.10705 4.16671 7.96946 4.16671 7.83398C4.16671 5.95118 5.86429 4.44011 7.7438 4.69487L8.0804 4.74049L8.24683 4.44438C8.79526 3.4686 9.84038 2.83398 11 2.83398C12.1597 2.83398 13.2048 3.4686 13.7533 4.44438L13.9197 4.74058L14.2564 4.69485C16.1315 4.44016 17.8334 5.95147 17.8334 7.83398C17.8334 7.96946 17.824 8.10705 17.8056 8.24604Z" fill="#102CA6" stroke="#38467E"/>
<path d="M10.7808 15.474C9.61082 15.474 8.82082 15.044 8.30082 14.444L9.00082 13.514C9.44082 13.944 9.97082 14.284 10.6408 14.284C11.4008 14.284 11.9108 13.904 11.9108 13.244C11.9108 12.514 11.4808 12.064 9.87082 12.064V11.004C11.2308 11.004 11.6708 10.544 11.6708 9.88398C11.6708 9.30398 11.3108 8.95398 10.6808 8.95398C10.1508 8.95398 9.72082 9.20398 9.28082 9.61398L8.53082 8.70398C9.17082 8.15398 9.88082 7.80398 10.7408 7.80398C12.1708 7.80398 13.1408 8.50398 13.1408 9.77398C13.1408 10.564 12.7008 11.154 11.9108 11.454V11.504C12.7508 11.744 13.3908 12.354 13.3908 13.334C13.3908 14.694 12.2008 15.474 10.7808 15.474Z" fill="white"/>
</svg>
