<svg width="23" height="23" viewBox="0 0 23 23" fill="none" xmlns="http://www.w3.org/2000/svg">
<path d="M18.34 8.24604L18.2957 8.58138L18.5905 8.74729C19.5666 9.29671 20.2011 10.342 20.2011 11.5007C20.2011 12.6593 19.5666 13.7046 18.5905 14.254L18.2957 14.4199L18.34 14.7553C18.3584 14.8943 18.3678 15.0318 18.3678 15.1673C18.3678 17.0488 16.6667 18.5573 14.7898 18.3063L14.4538 18.2614L14.2877 18.5569C13.7392 19.5327 12.6941 20.1673 11.5345 20.1673C10.3748 20.1673 9.32969 19.5327 8.78125 18.5569L8.61519 18.2615L8.27924 18.3063C6.39806 18.5573 4.70133 17.0492 4.70113 15.1677C4.70133 15.03 4.71058 14.8924 4.72881 14.7559L4.77366 14.4202L4.47846 14.254C3.50232 13.7046 2.8678 12.6593 2.8678 11.5007C2.8678 10.342 3.50232 9.29671 4.47846 8.74729L4.77323 8.58138L4.7289 8.24605C4.71053 8.10705 4.70113 7.96946 4.70113 7.83398C4.70113 5.95118 6.39871 4.44011 8.27822 4.69487L8.61482 4.74049L8.78125 4.44438C9.32969 3.4686 10.3748 2.83398 11.5345 2.83398C12.6941 2.83398 13.7392 3.4686 14.2877 4.44438L14.4542 4.74058L14.7908 4.69485C16.666 4.44016 18.3678 5.95147 18.3678 7.83398C18.3678 7.96946 18.3584 8.10705 18.34 8.24604Z" fill="#109CA6" stroke="#109CA6"/>
<path d="M9.39525 15.334V14.144H10.9952V9.46398H9.64525V8.55398C10.3952 8.41398 10.8952 8.22398 11.3752 7.93398H12.4652V14.144H13.8552V15.334H9.39525Z" fill="white"/>
</svg>
