<svg width="15" height="16" viewBox="0 0 15 16" fill="none" xmlns="http://www.w3.org/2000/svg">
<path d="M7.16552 11.3516L9.78004 8.75207L9.78105 8.75105C9.97875 8.55335 10.0925 8.28411 10.0925 8C10.0925 7.71589 9.97875 7.44665 9.78105 7.24895L9.78004 7.24793L7.16808 4.65094C6.95865 4.43124 6.68146 4.335 6.42 4.335C6.14808 4.335 5.87501 4.43288 5.66145 4.64645L5.6614 4.6464L5.65551 4.65249C5.25392 5.06793 5.24447 5.73503 5.67186 6.15146L7.52669 8L5.67183 9.84857C5.24771 10.2619 5.2487 10.9408 5.66145 11.3536C6.07701 11.7691 6.74792 11.7791 7.16552 11.3516ZM14.5 8C14.5 11.8624 11.3585 14.9982 7.50338 15L7.30054 14.9972C3.52892 14.8916 0.5 11.7971 0.5 8C0.5 4.14332 3.63647 1 7.5 1C11.3564 1 14.5 4.14364 14.5 8Z" fill="#38467E" stroke="#38467E"/>
</svg>
